<svg xmlns="http://www.w3.org/2000/svg" xmlns:xlink="http://www.w3.org/1999/xlink" width="1920" zoomAndPan="magnify" viewBox="0 0 1440 809.999993" height="1080" preserveAspectRatio="xMidYMid meet" version="1.0"><metadata/><defs><filter x="0%" y="0%" width="100%" height="100%" id="c5dbcce5be"><feColorMatrix values="0 0 0 0 1 0 0 0 0 1 0 0 0 0 1 0 0 0 1 0" color-interpolation-filters="sRGB"/></filter><g/><clipPath id="9bb07a129a"><path d="M 98.359375 73.238281 L 1343.015625 73.238281 L 1343.015625 735.324219 L 98.359375 735.324219 Z M 98.359375 73.238281 " clip-rule="nonzero"/></clipPath><clipPath id="d565db9a5e"><path d="M 96.246094 74.164062 L 1356.246094 74.164062 L 1356.246094 74.742188 L 96.246094 74.742188 Z M 96.246094 74.164062 " clip-rule="nonzero"/></clipPath><mask id="f7a5967d3d"><g filter="url(#c5dbcce5be)"><rect x="-144" width="1728" fill="#000000" y="-80.999999" height="971.999992" fill-opacity="0.4"/></g></mask><clipPath id="f42b2b63a8"><path d="M 0.246094 0.164062 L 1260.246094 0.164062 L 1260.246094 0.742188 L 0.246094 0.742188 Z M 0.246094 0.164062 " clip-rule="nonzero"/></clipPath><clipPath id="e817bf17e1"><rect x="0" width="1261" y="0" height="1"/></clipPath><clipPath id="a69cb71b17"><path d="M 95.25 73.167969 L 1357.25 73.167969 L 1357.25 75.742188 L 95.25 75.742188 Z M 95.25 73.167969 " clip-rule="nonzero"/></clipPath><clipPath id="01a5ce3a60"><path d="M 96.246094 73.167969 L 1356.246094 73.167969 C 1356.800781 73.167969 1357.246094 73.617188 1357.246094 74.164062 L 1357.246094 74.742188 C 1357.246094 75.296875 1356.796875 75.738281 1356.246094 75.738281 L 96.246094 75.738281 C 95.699219 75.738281 95.25 75.296875 95.25 74.742188 L 95.25 74.164062 C 95.25 73.617188 95.699219 73.167969 96.246094 73.167969 M 96.246094 75.167969 L 96.246094 74.164062 L 97.253906 74.164062 L 97.253906 74.742188 L 96.246094 74.742188 L 96.246094 73.742188 L 1356.246094 73.742188 L 1356.246094 74.742188 L 1355.25 74.742188 L 1355.25 74.164062 L 1356.246094 74.164062 L 1356.246094 75.167969 Z M 96.246094 75.167969 " clip-rule="nonzero"/></clipPath><mask id="21ba13334b"><g filter="url(#c5dbcce5be)"><rect x="-144" width="1728" fill="#000000" y="-80.999999" height="971.999992" fill-opacity="0.4"/></g></mask><clipPath id="44eb00055a"><path d="M 0.25 0.167969 L 1262.25 0.167969 L 1262.25 2.742188 L 0.25 2.742188 Z M 0.25 0.167969 " clip-rule="nonzero"/></clipPath><clipPath id="97f5763928"><path d="M 1.246094 0.167969 L 1261.246094 0.167969 C 1261.800781 0.167969 1262.246094 0.617188 1262.246094 1.164062 L 1262.246094 1.742188 C 1262.246094 2.296875 1261.796875 2.738281 1261.246094 2.738281 L 1.246094 2.738281 C 0.699219 2.738281 0.25 2.296875 0.25 1.742188 L 0.25 1.164062 C 0.25 0.617188 0.699219 0.167969 1.246094 0.167969 M 1.246094 2.167969 L 1.246094 1.164062 L 2.253906 1.164062 L 2.253906 1.742188 L 1.246094 1.742188 L 1.246094 0.742188 L 1261.246094 0.742188 L 1261.246094 1.742188 L 1260.25 1.742188 L 1260.25 1.164062 L 1261.246094 1.164062 L 1261.246094 2.167969 Z M 1.246094 2.167969 " clip-rule="nonzero"/></clipPath><clipPath id="a88a90f35b"><rect x="0" width="1263" y="0" height="3"/></clipPath></defs><g clip-path="url(#9bb07a129a)"><path stroke-linecap="butt" transform="matrix(0.75, 0, 0, 0.75, 98.3576, 73.237706)" fill="none" stroke-linejoin="miter" d="M 0.00236603 0.000767113 L 1659.544116 0.000767113 L 1659.544116 882.782062 L 0.00236603 882.782062 Z M 0.00236603 0.000767113 " stroke="#c9a96e" stroke-width="22" stroke-opacity="1" stroke-miterlimit="4"/></g><g clip-path="url(#d565db9a5e)"><g mask="url(#f7a5967d3d)"><g transform="matrix(1, 0, 0, 1, 96, 74)"><g clip-path="url(#e817bf17e1)"><g clip-path="url(#f42b2b63a8)"><rect x="-412.8" width="2073.6" fill="#c9a96e" height="1166.39999" y="-252.199998" fill-opacity="1"/></g></g></g></g></g><g clip-path="url(#a69cb71b17)"><g clip-path="url(#01a5ce3a60)"><g mask="url(#21ba13334b)"><g transform="matrix(1, 0, 0, 1, 95, 73)"><g clip-path="url(#a88a90f35b)"><g clip-path="url(#44eb00055a)"><g clip-path="url(#97f5763928)"><path fill="#c9a96e" d="M 0.25 0.167969 L 1262.25 0.167969 L 1262.25 2.742188 L 0.25 2.742188 Z M 0.25 0.167969 " fill-opacity="1" fill-rule="nonzero"/></g></g></g></g></g></g></g><g fill="#e8e4dc" fill-opacity="1"><g transform="translate(191.264705, 493.319438)"><g><path d="M 168.75 -123.15625 L 159.390625 -123.15625 C 156.878906 -130.539062 152.847656 -138.445312 147.296875 -146.875 C 141.742188 -155.300781 136.617188 -159.835938 131.921875 -160.484375 C 129.328125 -160.804688 126.125 -161.085938 122.3125 -161.328125 C 118.5 -161.578125 115.21875 -161.703125 112.46875 -161.703125 L 106.75 -161.703125 L 106.75 -26.390625 C 106.75 -23.460938 107.273438 -20.882812 108.328125 -18.65625 C 109.378906 -16.425781 111.445312 -14.664062 114.53125 -13.375 C 116.394531 -12.644531 119.289062 -11.894531 123.21875 -11.125 C 127.15625 -10.351562 130.5 -9.804688 133.25 -9.484375 L 133.25 0 L 37.078125 0 L 37.078125 -9.484375 C 39.429688 -9.722656 42.734375 -10.066406 46.984375 -10.515625 C 51.242188 -10.960938 54.144531 -11.507812 55.6875 -12.15625 C 58.84375 -13.457031 60.945312 -15.203125 62 -17.390625 C 63.0625 -19.578125 63.59375 -22.171875 63.59375 -25.171875 L 63.59375 -161.703125 L 57.875 -161.703125 C 55.113281 -161.703125 51.828125 -161.578125 48.015625 -161.328125 C 44.210938 -161.085938 41.015625 -160.804688 38.421875 -160.484375 C 33.722656 -159.835938 28.597656 -155.300781 23.046875 -146.875 C 17.492188 -138.445312 13.457031 -130.539062 10.9375 -123.15625 L 1.578125 -123.15625 L 1.578125 -172.53125 L 168.75 -172.53125 Z M 168.75 -123.15625 "/></g></g></g><g fill="#e8e4dc" fill-opacity="1"><g transform="translate(359.521009, 493.319438)"><g><path d="M 195.625 0 L 101.640625 0 L 101.640625 -9.484375 C 106.015625 -9.804688 111.160156 -10.59375 117.078125 -11.84375 C 122.992188 -13.101562 125.953125 -14.664062 125.953125 -16.53125 C 125.953125 -17.1875 125.890625 -17.914062 125.765625 -18.71875 C 125.648438 -19.53125 125.3125 -20.625 124.75 -22 L 110.03125 -57.75 L 50.453125 -57.75 C 49.078125 -54.425781 47.554688 -50.535156 45.890625 -46.078125 C 44.234375 -41.617188 42.796875 -37.648438 41.578125 -34.171875 C 40.035156 -29.628906 39.125 -26.34375 38.84375 -24.3125 C 38.5625 -22.289062 38.421875 -20.875 38.421875 -20.0625 C 38.421875 -17.46875 40.382812 -15.257812 44.3125 -13.4375 C 48.25 -11.613281 54.796875 -10.296875 63.953125 -9.484375 L 63.953125 0 L -6.8125 0 L -6.8125 -9.484375 C -4.132812 -9.648438 -1.113281 -10.078125 2.25 -10.765625 C 5.613281 -11.453125 8.269531 -12.40625 10.21875 -13.625 C 13.539062 -15.5625 16.351562 -17.945312 18.65625 -20.78125 C 20.96875 -23.625 22.894531 -26.988281 24.4375 -30.875 C 33.84375 -53.65625 43.265625 -76.472656 52.703125 -99.328125 C 62.148438 -122.191406 72.585938 -147.398438 84.015625 -174.953125 L 108.328125 -174.953125 C 124.210938 -135.890625 136.65625 -105.007812 145.65625 -82.3125 C 154.65625 -59.613281 162.316406 -40.804688 168.640625 -25.890625 C 169.691406 -23.460938 171.023438 -21.253906 172.640625 -19.265625 C 174.265625 -17.285156 176.578125 -15.40625 179.578125 -13.625 C 181.847656 -12.320312 184.484375 -11.347656 187.484375 -10.703125 C 190.484375 -10.054688 193.195312 -9.648438 195.625 -9.484375 Z M 105.046875 -69.78125 L 80 -132.28125 L 55.3125 -69.78125 Z M 105.046875 -69.78125 "/></g></g></g><g fill="#e8e4dc" fill-opacity="1"><g transform="translate(546.257229, 493.319438)"><g><path d="M 200.484375 -70.15625 C 197.972656 -69.90625 195.742188 -69.617188 193.796875 -69.296875 C 191.859375 -68.972656 189.425781 -68.328125 186.5 -67.359375 C 183.175781 -66.304688 180.988281 -64.5625 179.9375 -62.125 C 178.882812 -59.695312 178.359375 -57.144531 178.359375 -54.46875 L 178.359375 -34.40625 C 178.359375 -30.351562 178.398438 -27.085938 178.484375 -24.609375 C 178.566406 -22.140625 178.6875 -19.082031 178.84375 -15.4375 C 170.738281 -10.570312 158.765625 -5.992188 142.921875 -1.703125 C 127.078125 2.585938 112.507812 4.734375 99.21875 4.734375 C 86.726562 4.734375 75.007812 2.832031 64.0625 -0.96875 C 53.125 -4.78125 43.523438 -10.492188 35.265625 -18.109375 C 26.992188 -25.648438 20.484375 -35.015625 15.734375 -46.203125 C 10.992188 -57.390625 8.625 -70.195312 8.625 -84.625 C 8.625 -98.070312 10.851562 -110.507812 15.3125 -121.9375 C 19.769531 -133.375 26.21875 -143.222656 34.65625 -151.484375 C 42.914062 -159.671875 52.984375 -165.992188 64.859375 -170.453125 C 76.734375 -174.910156 89.882812 -177.140625 104.3125 -177.140625 C 114.125 -177.140625 123.203125 -175.941406 131.546875 -173.546875 C 139.898438 -171.160156 146.789062 -168.59375 152.21875 -165.84375 L 159.765625 -172.53125 L 170.34375 -172.53125 L 171.4375 -109.546875 L 160.734375 -109.546875 C 154.566406 -128.429688 147.1875 -142.453125 138.59375 -151.609375 C 130.007812 -160.773438 119.148438 -165.359375 106.015625 -165.359375 C 90.453125 -165.359375 78.4375 -158.546875 69.96875 -144.921875 C 61.5 -131.304688 57.265625 -112.546875 57.265625 -88.640625 C 57.265625 -63.265625 61.414062 -43.398438 69.71875 -29.046875 C 78.03125 -14.703125 89.804688 -7.53125 105.046875 -7.53125 C 112.179688 -7.53125 118.523438 -8.601562 124.078125 -10.75 C 129.628906 -12.90625 133.941406 -15.398438 137.015625 -18.234375 L 137.015625 -53.25 C 137.015625 -56.164062 136.488281 -58.617188 135.4375 -60.609375 C 134.382812 -62.597656 132.28125 -64.320312 129.125 -65.78125 C 126.6875 -66.914062 123.644531 -67.847656 120 -68.578125 C 116.351562 -69.304688 113.316406 -69.832031 110.890625 -70.15625 L 110.890625 -79.640625 L 200.484375 -79.640625 Z M 200.484375 -70.15625 "/></g></g></g><path stroke-linecap="butt" transform="matrix(0, 0.75, -0.75, 0, 804.48851, 303.912866)" fill="none" stroke-linejoin="miter" d="M 0.00159492 2.000305 L 275.454734 2.000305 " stroke="#c9a96e" stroke-width="4" stroke-opacity="1" stroke-miterlimit="4"/><g fill="#c9a96e" fill-opacity="1"><g transform="translate(871.693018, 342.014799)"><g><path d="M 10.078125 0 L 10.078125 -27.203125 L 14.6875 -27.203125 L 14.6875 0 Z M 0.953125 -23.796875 L 0.953125 -28 L 23.796875 -28 L 23.796875 -23.796875 Z M 0.953125 -23.796875 "/></g></g></g><g fill="#c9a96e" fill-opacity="1"><g transform="translate(904.490502, 342.014799)"><g><path d="M 3.046875 0 L 3.046875 -28 L 7.640625 -28 L 7.640625 0 Z M 6.203125 0 L 6.203125 -4.203125 L 21.875 -4.203125 L 21.875 0 Z M 6.203125 -12.28125 L 6.203125 -16.3125 L 20.515625 -16.3125 L 20.515625 -12.28125 Z M 6.203125 -23.796875 L 6.203125 -28 L 21.6875 -28 L 21.6875 -23.796875 Z M 6.203125 -23.796875 "/></g></g></g><g fill="#c9a96e" fill-opacity="1"><g transform="translate(936.128104, 342.014799)"><g><path d="M 6.203125 -11.875 L 6.203125 -15.6875 L 13.28125 -15.6875 C 14.695312 -15.6875 15.796875 -16.050781 16.578125 -16.78125 C 17.367188 -17.507812 17.765625 -18.53125 17.765625 -19.84375 C 17.765625 -21.007812 17.375 -21.992188 16.59375 -22.796875 C 15.820312 -23.597656 14.726562 -24 13.3125 -24 L 6.203125 -24 L 6.203125 -28 L 13.515625 -28 C 15.273438 -28 16.820312 -27.644531 18.15625 -26.9375 C 19.488281 -26.226562 20.519531 -25.265625 21.25 -24.046875 C 21.988281 -22.835938 22.359375 -21.460938 22.359375 -19.921875 C 22.359375 -18.296875 21.988281 -16.878906 21.25 -15.671875 C 20.519531 -14.472656 19.488281 -13.539062 18.15625 -12.875 C 16.820312 -12.207031 15.273438 -11.875 13.515625 -11.875 Z M 3.046875 0 L 3.046875 -28 L 7.640625 -28 L 7.640625 0 Z M 18.40625 0 L 8.59375 -12.15625 L 12.875 -13.71875 L 24.203125 0 Z M 18.40625 0 "/></g></g></g><g fill="#c9a96e" fill-opacity="1"><g transform="translate(969.28555, 342.014799)"><g><path d="M 6.203125 -11.875 L 6.203125 -15.6875 L 13.28125 -15.6875 C 14.695312 -15.6875 15.796875 -16.050781 16.578125 -16.78125 C 17.367188 -17.507812 17.765625 -18.53125 17.765625 -19.84375 C 17.765625 -21.007812 17.375 -21.992188 16.59375 -22.796875 C 15.820312 -23.597656 14.726562 -24 13.3125 -24 L 6.203125 -24 L 6.203125 -28 L 13.515625 -28 C 15.273438 -28 16.820312 -27.644531 18.15625 -26.9375 C 19.488281 -26.226562 20.519531 -25.265625 21.25 -24.046875 C 21.988281 -22.835938 22.359375 -21.460938 22.359375 -19.921875 C 22.359375 -18.296875 21.988281 -16.878906 21.25 -15.671875 C 20.519531 -14.472656 19.488281 -13.539062 18.15625 -12.875 C 16.820312 -12.207031 15.273438 -11.875 13.515625 -11.875 Z M 3.046875 0 L 3.046875 -28 L 7.640625 -28 L 7.640625 0 Z M 18.40625 0 L 8.59375 -12.15625 L 12.875 -13.71875 L 24.203125 0 Z M 18.40625 0 "/></g></g></g><g fill="#c9a96e" fill-opacity="1"><g transform="translate(1002.442996, 342.014799)"><g><path d="M 0.953125 0 L 12.484375 -28 L 15.6875 -28 L 27.125 0 L 22.15625 0 L 13.203125 -22.6875 L 14.875 -22.6875 L 5.84375 0 Z M 6.640625 -5.40625 L 6.640625 -9.40625 L 21.484375 -9.40625 L 21.484375 -5.40625 Z M 6.640625 -5.40625 "/></g></g></g><g fill="#c9a96e" fill-opacity="1"><g transform="translate(1038.560147, 342.014799)"><g><path d="M 12.28125 0 L 0.953125 -28 L 5.953125 -28 L 14.796875 -5.3125 L 13.046875 -5.3125 L 21.953125 -28 L 26.875 -28 L 15.484375 0 Z M 12.28125 0 "/></g></g></g><g fill="#c9a96e" fill-opacity="1"><g transform="translate(1074.437315, 342.014799)"><g><path d="M 0.953125 0 L 12.484375 -28 L 15.6875 -28 L 27.125 0 L 22.15625 0 L 13.203125 -22.6875 L 14.875 -22.6875 L 5.84375 0 Z M 6.640625 -5.40625 L 6.640625 -9.40625 L 21.484375 -9.40625 L 21.484375 -5.40625 Z M 6.640625 -5.40625 "/></g></g></g><g fill="#c9a96e" fill-opacity="1"><g transform="translate(1110.554478, 342.014799)"><g><path d="M 3.046875 0 L 3.046875 -28 L 6.234375 -28 L 7.640625 -22.71875 L 7.640625 0 Z M 22.4375 0 L 5.6875 -21.875 L 6.234375 -28 L 23 -6.125 Z M 22.4375 0 L 21.046875 -4.921875 L 21.046875 -28 L 25.640625 -28 L 25.640625 0 Z M 22.4375 0 "/></g></g></g><g fill="#c9a96e" fill-opacity="1"><g transform="translate(1147.271586, 342.014799)"><g><path d="M 15.765625 0.40625 C 13.734375 0.40625 11.859375 0.0390625 10.140625 -0.6875 C 8.421875 -1.425781 6.921875 -2.457031 5.640625 -3.78125 C 4.359375 -5.101562 3.367188 -6.632812 2.671875 -8.375 C 1.984375 -10.125 1.640625 -12 1.640625 -14 C 1.640625 -16 1.984375 -17.867188 2.671875 -19.609375 C 3.367188 -21.359375 4.359375 -22.882812 5.640625 -24.1875 C 6.921875 -25.5 8.421875 -26.53125 10.140625 -27.28125 C 11.859375 -28.03125 13.734375 -28.40625 15.765625 -28.40625 C 18.023438 -28.40625 19.984375 -28.03125 21.640625 -27.28125 C 23.296875 -26.53125 24.765625 -25.515625 26.046875 -24.234375 L 22.921875 -21.125 C 22.097656 -22.03125 21.09375 -22.734375 19.90625 -23.234375 C 18.71875 -23.742188 17.335938 -24 15.765625 -24 C 14.378906 -24 13.109375 -23.757812 11.953125 -23.28125 C 10.804688 -22.800781 9.8125 -22.113281 8.96875 -21.21875 C 8.132812 -20.320312 7.488281 -19.257812 7.03125 -18.03125 C 6.582031 -16.8125 6.359375 -15.46875 6.359375 -14 C 6.359375 -12.53125 6.582031 -11.179688 7.03125 -9.953125 C 7.488281 -8.734375 8.132812 -7.675781 8.96875 -6.78125 C 9.8125 -5.882812 10.804688 -5.195312 11.953125 -4.71875 C 13.109375 -4.238281 14.378906 -4 15.765625 -4 C 17.460938 -4 18.90625 -4.257812 20.09375 -4.78125 C 21.28125 -5.300781 22.289062 -6.015625 23.125 -6.921875 L 26.234375 -3.796875 C 24.953125 -2.492188 23.445312 -1.46875 21.71875 -0.71875 C 19.988281 0.03125 18.003906 0.40625 15.765625 0.40625 Z M 15.765625 0.40625 "/></g></g></g><g fill="#c9a96e" fill-opacity="1"><g transform="translate(1182.628792, 342.014799)"><g><path d="M 3.046875 0 L 3.046875 -28 L 7.640625 -28 L 7.640625 0 Z M 6.203125 0 L 6.203125 -4.203125 L 21.875 -4.203125 L 21.875 0 Z M 6.203125 -12.28125 L 6.203125 -16.3125 L 20.515625 -16.3125 L 20.515625 -12.28125 Z M 6.203125 -23.796875 L 6.203125 -28 L 21.6875 -28 L 21.6875 -23.796875 Z M 6.203125 -23.796875 "/></g></g></g><g fill="#c9a96e" fill-opacity="1"><g transform="translate(871.693018, 396.76667)"><g><path d="M 0.953125 0 L 12.484375 -28 L 15.6875 -28 L 27.125 0 L 22.15625 0 L 13.203125 -22.6875 L 14.875 -22.6875 L 5.84375 0 Z M 6.640625 -5.40625 L 6.640625 -9.40625 L 21.484375 -9.40625 L 21.484375 -5.40625 Z M 6.640625 -5.40625 "/></g></g></g><g fill="#c9a96e" fill-opacity="1"><g transform="translate(907.810158, 396.76667)"><g><path d="M 6.203125 0 L 6.203125 -4.203125 L 13.5625 -4.203125 C 15.476562 -4.203125 17.160156 -4.613281 18.609375 -5.4375 C 20.066406 -6.269531 21.203125 -7.425781 22.015625 -8.90625 C 22.828125 -10.382812 23.234375 -12.097656 23.234375 -14.046875 C 23.234375 -15.960938 22.820312 -17.648438 22 -19.109375 C 21.175781 -20.578125 20.035156 -21.722656 18.578125 -22.546875 C 17.128906 -23.378906 15.457031 -23.796875 13.5625 -23.796875 L 6.203125 -23.796875 L 6.203125 -28 L 13.6875 -28 C 15.707031 -28 17.582031 -27.644531 19.3125 -26.9375 C 21.050781 -26.226562 22.566406 -25.238281 23.859375 -23.96875 C 25.148438 -22.707031 26.15625 -21.226562 26.875 -19.53125 C 27.59375 -17.84375 27.953125 -16 27.953125 -14 C 27.953125 -12.03125 27.59375 -10.191406 26.875 -8.484375 C 26.15625 -6.773438 25.15625 -5.285156 23.875 -4.015625 C 22.59375 -2.753906 21.085938 -1.769531 19.359375 -1.0625 C 17.628906 -0.351562 15.765625 0 13.765625 0 Z M 3.046875 0 L 3.046875 -28 L 7.640625 -28 L 7.640625 0 Z M 3.046875 0 "/></g></g></g><g fill="#c9a96e" fill-opacity="1"><g transform="translate(945.447154, 396.76667)"><g><path d="M 12.28125 0 L 0.953125 -28 L 5.953125 -28 L 14.796875 -5.3125 L 13.046875 -5.3125 L 21.953125 -28 L 26.875 -28 L 15.484375 0 Z M 12.28125 0 "/></g></g></g><g fill="#c9a96e" fill-opacity="1"><g transform="translate(981.324322, 396.76667)"><g><path d="M 3.046875 0 L 3.046875 -28 L 7.640625 -28 L 7.640625 0 Z M 3.046875 0 "/></g></g></g><g fill="#c9a96e" fill-opacity="1"><g transform="translate(1000.043193, 396.76667)"><g><path d="M 10.84375 0.40625 C 8.625 0.40625 6.738281 0.00390625 5.1875 -0.796875 C 3.644531 -1.597656 2.265625 -2.769531 1.046875 -4.3125 L 4.15625 -7.4375 C 4.925781 -6.320312 5.84375 -5.445312 6.90625 -4.8125 C 7.976562 -4.1875 9.34375 -3.875 11 -3.875 C 12.539062 -3.875 13.769531 -4.191406 14.6875 -4.828125 C 15.613281 -5.472656 16.078125 -6.359375 16.078125 -7.484375 C 16.078125 -8.410156 15.835938 -9.164062 15.359375 -9.75 C 14.878906 -10.34375 14.242188 -10.832031 13.453125 -11.21875 C 12.671875 -11.601562 11.804688 -11.945312 10.859375 -12.25 C 9.910156 -12.5625 8.960938 -12.910156 8.015625 -13.296875 C 7.066406 -13.679688 6.195312 -14.164062 5.40625 -14.75 C 4.625 -15.34375 3.992188 -16.101562 3.515625 -17.03125 C 3.035156 -17.96875 2.796875 -19.15625 2.796875 -20.59375 C 2.796875 -22.25 3.203125 -23.65625 4.015625 -24.8125 C 4.828125 -25.976562 5.925781 -26.867188 7.3125 -27.484375 C 8.707031 -28.097656 10.253906 -28.40625 11.953125 -28.40625 C 13.796875 -28.40625 15.441406 -28.039062 16.890625 -27.3125 C 18.347656 -26.59375 19.53125 -25.675781 20.4375 -24.5625 L 17.3125 -21.4375 C 16.519531 -22.34375 15.6875 -23.015625 14.8125 -23.453125 C 13.945312 -23.898438 12.957031 -24.125 11.84375 -24.125 C 10.457031 -24.125 9.367188 -23.84375 8.578125 -23.28125 C 7.796875 -22.71875 7.40625 -21.929688 7.40625 -20.921875 C 7.40625 -20.066406 7.644531 -19.378906 8.125 -18.859375 C 8.601562 -18.335938 9.234375 -17.894531 10.015625 -17.53125 C 10.804688 -17.175781 11.675781 -16.835938 12.625 -16.515625 C 13.570312 -16.203125 14.515625 -15.84375 15.453125 -15.4375 C 16.398438 -15.039062 17.265625 -14.523438 18.046875 -13.890625 C 18.835938 -13.265625 19.472656 -12.457031 19.953125 -11.46875 C 20.441406 -10.488281 20.6875 -9.253906 20.6875 -7.765625 C 20.6875 -5.253906 19.796875 -3.265625 18.015625 -1.796875 C 16.242188 -0.328125 13.851562 0.40625 10.84375 0.40625 Z M 10.84375 0.40625 "/></g></g></g><g fill="#c9a96e" fill-opacity="1"><g transform="translate(1030.320917, 396.76667)"><g><path d="M 15.921875 0.40625 C 13.921875 0.40625 12.050781 0.03125 10.3125 -0.71875 C 8.582031 -1.46875 7.0625 -2.5 5.75 -3.8125 C 4.445312 -5.132812 3.425781 -6.671875 2.6875 -8.421875 C 1.957031 -10.171875 1.59375 -12.046875 1.59375 -14.046875 C 1.59375 -16.046875 1.957031 -17.910156 2.6875 -19.640625 C 3.425781 -21.367188 4.441406 -22.894531 5.734375 -24.21875 C 7.035156 -25.539062 8.546875 -26.566406 10.265625 -27.296875 C 11.984375 -28.035156 13.84375 -28.40625 15.84375 -28.40625 C 17.84375 -28.40625 19.703125 -28.035156 21.421875 -27.296875 C 23.140625 -26.566406 24.648438 -25.539062 25.953125 -24.21875 C 27.265625 -22.894531 28.285156 -21.359375 29.015625 -19.609375 C 29.753906 -17.867188 30.125 -16 30.125 -14 C 30.125 -12 29.753906 -10.125 29.015625 -8.375 C 28.285156 -6.632812 27.273438 -5.109375 25.984375 -3.796875 C 24.691406 -2.492188 23.179688 -1.46875 21.453125 -0.71875 C 19.734375 0.03125 17.890625 0.40625 15.921875 0.40625 Z M 15.84375 -4 C 17.738281 -4 19.394531 -4.425781 20.8125 -5.28125 C 22.238281 -6.132812 23.359375 -7.3125 24.171875 -8.8125 C 24.992188 -10.320312 25.40625 -12.066406 25.40625 -14.046875 C 25.40625 -15.503906 25.171875 -16.835938 24.703125 -18.046875 C 24.234375 -19.265625 23.570312 -20.320312 22.71875 -21.21875 C 21.863281 -22.113281 20.851562 -22.800781 19.6875 -23.28125 C 18.53125 -23.757812 17.25 -24 15.84375 -24 C 13.976562 -24 12.332031 -23.578125 10.90625 -22.734375 C 9.476562 -21.898438 8.351562 -20.734375 7.53125 -19.234375 C 6.71875 -17.742188 6.3125 -16.015625 6.3125 -14.046875 C 6.3125 -12.578125 6.546875 -11.222656 7.015625 -9.984375 C 7.484375 -8.742188 8.132812 -7.679688 8.96875 -6.796875 C 9.8125 -5.921875 10.820312 -5.234375 12 -4.734375 C 13.175781 -4.242188 14.457031 -4 15.84375 -4 Z M 15.84375 -4 "/></g></g></g><g fill="#c9a96e" fill-opacity="1"><g transform="translate(1070.117698, 396.76667)"><g><path d="M 6.203125 -11.875 L 6.203125 -15.6875 L 13.28125 -15.6875 C 14.695312 -15.6875 15.796875 -16.050781 16.578125 -16.78125 C 17.367188 -17.507812 17.765625 -18.53125 17.765625 -19.84375 C 17.765625 -21.007812 17.375 -21.992188 16.59375 -22.796875 C 15.820312 -23.597656 14.726562 -24 13.3125 -24 L 6.203125 -24 L 6.203125 -28 L 13.515625 -28 C 15.273438 -28 16.820312 -27.644531 18.15625 -26.9375 C 19.488281 -26.226562 20.519531 -25.265625 21.25 -24.046875 C 21.988281 -22.835938 22.359375 -21.460938 22.359375 -19.921875 C 22.359375 -18.296875 21.988281 -16.878906 21.25 -15.671875 C 20.519531 -14.472656 19.488281 -13.539062 18.15625 -12.875 C 16.820312 -12.207031 15.273438 -11.875 13.515625 -11.875 Z M 3.046875 0 L 3.046875 -28 L 7.640625 -28 L 7.640625 0 Z M 18.40625 0 L 8.59375 -12.15625 L 12.875 -13.71875 L 24.203125 0 Z M 18.40625 0 "/></g></g></g><g fill="#c9a96e" fill-opacity="1"><g transform="translate(1103.275144, 396.76667)"><g><path d="M 11.796875 -11.203125 L 0.875 -28 L 6.203125 -28 L 14.71875 -14.59375 L 12.234375 -14.59375 L 20.765625 -28 L 26 -28 L 15 -11.203125 Z M 11.15625 0 L 11.15625 -14.078125 L 15.765625 -14.078125 L 15.765625 0 Z M 11.15625 0 "/></g></g></g><g fill="#c9a96e" fill-opacity="1"><g transform="translate(871.693018, 452.910741)"><g><path d="M 15.6875 0.40625 C 13.757812 0.40625 11.941406 0.03125 10.234375 -0.71875 C 8.535156 -1.46875 7.046875 -2.5 5.765625 -3.8125 C 4.484375 -5.132812 3.472656 -6.671875 2.734375 -8.421875 C 2.003906 -10.171875 1.640625 -12.046875 1.640625 -14.046875 C 1.640625 -16.046875 2.003906 -17.910156 2.734375 -19.640625 C 3.472656 -21.367188 4.488281 -22.894531 5.78125 -24.21875 C 7.070312 -25.539062 8.585938 -26.566406 10.328125 -27.296875 C 12.078125 -28.035156 13.96875 -28.40625 16 -28.40625 C 18.207031 -28.40625 20.257812 -27.976562 22.15625 -27.125 C 24.050781 -26.269531 25.640625 -25.054688 26.921875 -23.484375 L 23.796875 -20.359375 C 22.972656 -21.535156 21.867188 -22.4375 20.484375 -23.0625 C 19.097656 -23.6875 17.601562 -24 16 -24 C 14.082031 -24 12.394531 -23.578125 10.9375 -22.734375 C 9.488281 -21.898438 8.363281 -20.734375 7.5625 -19.234375 C 6.757812 -17.742188 6.359375 -16.015625 6.359375 -14.046875 C 6.359375 -12.066406 6.765625 -10.320312 7.578125 -8.8125 C 8.390625 -7.3125 9.488281 -6.132812 10.875 -5.28125 C 12.257812 -4.425781 13.832031 -4 15.59375 -4 C 17.46875 -4 19.078125 -4.335938 20.421875 -5.015625 C 21.765625 -5.703125 22.796875 -6.71875 23.515625 -8.0625 C 24.234375 -9.40625 24.59375 -11.066406 24.59375 -13.046875 L 27.484375 -10.953125 L 15.515625 -10.953125 L 15.515625 -15.15625 L 29.359375 -15.15625 L 29.359375 -14.515625 C 29.359375 -11.179688 28.765625 -8.40625 27.578125 -6.1875 C 26.390625 -3.976562 24.769531 -2.328125 22.71875 -1.234375 C 20.664062 -0.140625 18.320312 0.40625 15.6875 0.40625 Z M 15.6875 0.40625 "/></g></g></g><g fill="#c9a96e" fill-opacity="1"><g transform="translate(910.609886, 452.910741)"><g><path d="M 6.203125 -11.875 L 6.203125 -15.6875 L 13.28125 -15.6875 C 14.695312 -15.6875 15.796875 -16.050781 16.578125 -16.78125 C 17.367188 -17.507812 17.765625 -18.53125 17.765625 -19.84375 C 17.765625 -21.007812 17.375 -21.992188 16.59375 -22.796875 C 15.820312 -23.597656 14.726562 -24 13.3125 -24 L 6.203125 -24 L 6.203125 -28 L 13.515625 -28 C 15.273438 -28 16.820312 -27.644531 18.15625 -26.9375 C 19.488281 -26.226562 20.519531 -25.265625 21.25 -24.046875 C 21.988281 -22.835938 22.359375 -21.460938 22.359375 -19.921875 C 22.359375 -18.296875 21.988281 -16.878906 21.25 -15.671875 C 20.519531 -14.472656 19.488281 -13.539062 18.15625 -12.875 C 16.820312 -12.207031 15.273438 -11.875 13.515625 -11.875 Z M 3.046875 0 L 3.046875 -28 L 7.640625 -28 L 7.640625 0 Z M 18.40625 0 L 8.59375 -12.15625 L 12.875 -13.71875 L 24.203125 0 Z M 18.40625 0 "/></g></g></g><g fill="#c9a96e" fill-opacity="1"><g transform="translate(943.767321, 452.910741)"><g><path d="M 15.921875 0.40625 C 13.921875 0.40625 12.050781 0.03125 10.3125 -0.71875 C 8.582031 -1.46875 7.0625 -2.5 5.75 -3.8125 C 4.445312 -5.132812 3.425781 -6.671875 2.6875 -8.421875 C 1.957031 -10.171875 1.59375 -12.046875 1.59375 -14.046875 C 1.59375 -16.046875 1.957031 -17.910156 2.6875 -19.640625 C 3.425781 -21.367188 4.441406 -22.894531 5.734375 -24.21875 C 7.035156 -25.539062 8.546875 -26.566406 10.265625 -27.296875 C 11.984375 -28.035156 13.84375 -28.40625 15.84375 -28.40625 C 17.84375 -28.40625 19.703125 -28.035156 21.421875 -27.296875 C 23.140625 -26.566406 24.648438 -25.539062 25.953125 -24.21875 C 27.265625 -22.894531 28.285156 -21.359375 29.015625 -19.609375 C 29.753906 -17.867188 30.125 -16 30.125 -14 C 30.125 -12 29.753906 -10.125 29.015625 -8.375 C 28.285156 -6.632812 27.273438 -5.109375 25.984375 -3.796875 C 24.691406 -2.492188 23.179688 -1.46875 21.453125 -0.71875 C 19.734375 0.03125 17.890625 0.40625 15.921875 0.40625 Z M 15.84375 -4 C 17.738281 -4 19.394531 -4.425781 20.8125 -5.28125 C 22.238281 -6.132812 23.359375 -7.3125 24.171875 -8.8125 C 24.992188 -10.320312 25.40625 -12.066406 25.40625 -14.046875 C 25.40625 -15.503906 25.171875 -16.835938 24.703125 -18.046875 C 24.234375 -19.265625 23.570312 -20.320312 22.71875 -21.21875 C 21.863281 -22.113281 20.851562 -22.800781 19.6875 -23.28125 C 18.53125 -23.757812 17.25 -24 15.84375 -24 C 13.976562 -24 12.332031 -23.578125 10.90625 -22.734375 C 9.476562 -21.898438 8.351562 -20.734375 7.53125 -19.234375 C 6.71875 -17.742188 6.3125 -16.015625 6.3125 -14.046875 C 6.3125 -12.578125 6.546875 -11.222656 7.015625 -9.984375 C 7.484375 -8.742188 8.132812 -7.679688 8.96875 -6.796875 C 9.8125 -5.921875 10.820312 -5.234375 12 -4.734375 C 13.175781 -4.242188 14.457031 -4 15.84375 -4 Z M 15.84375 -4 "/></g></g></g><g fill="#c9a96e" fill-opacity="1"><g transform="translate(983.564102, 452.910741)"><g><path d="M 13.84375 0.40625 C 11.738281 0.40625 9.84375 -0.0703125 8.15625 -1.03125 C 6.476562 -2 5.148438 -3.316406 4.171875 -4.984375 C 3.203125 -6.648438 2.71875 -8.535156 2.71875 -10.640625 L 2.71875 -28 L 7.3125 -28 L 7.3125 -10.6875 C 7.3125 -9.320312 7.597656 -8.140625 8.171875 -7.140625 C 8.753906 -6.140625 9.535156 -5.363281 10.515625 -4.8125 C 11.503906 -4.269531 12.613281 -4 13.84375 -4 C 15.09375 -4 16.195312 -4.269531 17.15625 -4.8125 C 18.113281 -5.363281 18.875 -6.140625 19.4375 -7.140625 C 20 -8.140625 20.28125 -9.304688 20.28125 -10.640625 L 20.28125 -28 L 24.875 -28 L 24.875 -10.59375 C 24.875 -8.488281 24.394531 -6.609375 23.4375 -4.953125 C 22.476562 -3.304688 21.171875 -2 19.515625 -1.03125 C 17.867188 -0.0703125 15.976562 0.40625 13.84375 0.40625 Z M 13.84375 0.40625 "/></g></g></g><g fill="#c9a96e" fill-opacity="1"><g transform="translate(1019.201289, 452.910741)"><g><path d="M 6.203125 -10.5625 L 6.203125 -14.5625 L 13.203125 -14.5625 C 14.160156 -14.5625 15.003906 -14.753906 15.734375 -15.140625 C 16.472656 -15.523438 17.054688 -16.070312 17.484375 -16.78125 C 17.910156 -17.488281 18.125 -18.320312 18.125 -19.28125 C 18.125 -20.238281 17.910156 -21.070312 17.484375 -21.78125 C 17.054688 -22.488281 16.472656 -23.035156 15.734375 -23.421875 C 15.003906 -23.804688 14.160156 -24 13.203125 -24 L 6.203125 -24 L 6.203125 -28 L 13.4375 -28 C 15.195312 -28 16.773438 -27.640625 18.171875 -26.921875 C 19.578125 -26.203125 20.6875 -25.1875 21.5 -23.875 C 22.3125 -22.570312 22.71875 -21.039062 22.71875 -19.28125 C 22.71875 -17.519531 22.3125 -15.984375 21.5 -14.671875 C 20.6875 -13.367188 19.578125 -12.359375 18.171875 -11.640625 C 16.773438 -10.921875 15.195312 -10.5625 13.4375 -10.5625 Z M 3.046875 0 L 3.046875 -28 L 7.640625 -28 L 7.640625 0 Z M 3.046875 0 "/></g></g></g><g fill="#e8e4dc" fill-opacity="1"><g transform="translate(871.693018, 507.967338)"><g><path d="M 7.953125 0.203125 C 6.984375 0.203125 6.082031 0.0195312 5.25 -0.34375 C 4.414062 -0.71875 3.6875 -1.226562 3.0625 -1.875 C 2.4375 -2.519531 1.945312 -3.269531 1.59375 -4.125 C 1.238281 -4.988281 1.0625 -5.914062 1.0625 -6.90625 C 1.0625 -7.90625 1.234375 -8.828125 1.578125 -9.671875 C 1.921875 -10.523438 2.40625 -11.269531 3.03125 -11.90625 C 3.664062 -12.550781 4.394531 -13.050781 5.21875 -13.40625 C 6.039062 -13.769531 6.941406 -13.953125 7.921875 -13.953125 C 8.890625 -13.953125 9.789062 -13.769531 10.625 -13.40625 C 11.457031 -13.050781 12.1875 -12.550781 12.8125 -11.90625 C 13.445312 -11.269531 13.9375 -10.519531 14.28125 -9.65625 C 14.625 -8.800781 14.796875 -7.875 14.796875 -6.875 C 14.796875 -5.894531 14.625 -4.972656 14.28125 -4.109375 C 13.9375 -3.242188 13.453125 -2.492188 12.828125 -1.859375 C 12.210938 -1.222656 11.488281 -0.71875 10.65625 -0.34375 C 9.832031 0.0195312 8.929688 0.203125 7.953125 0.203125 Z M 7.921875 -1.21875 C 8.960938 -1.21875 9.882812 -1.460938 10.6875 -1.953125 C 11.5 -2.453125 12.132812 -3.128906 12.59375 -3.984375 C 13.050781 -4.835938 13.28125 -5.8125 13.28125 -6.90625 C 13.28125 -7.71875 13.144531 -8.46875 12.875 -9.15625 C 12.613281 -9.84375 12.242188 -10.441406 11.765625 -10.953125 C 11.285156 -11.460938 10.71875 -11.859375 10.0625 -12.140625 C 9.414062 -12.421875 8.703125 -12.5625 7.921875 -12.5625 C 6.890625 -12.5625 5.96875 -12.316406 5.15625 -11.828125 C 4.351562 -11.335938 3.722656 -10.664062 3.265625 -9.8125 C 2.804688 -8.96875 2.578125 -8 2.578125 -6.90625 C 2.578125 -6.09375 2.707031 -5.335938 2.96875 -4.640625 C 3.238281 -3.941406 3.613281 -3.335938 4.09375 -2.828125 C 4.570312 -2.316406 5.140625 -1.921875 5.796875 -1.640625 C 6.453125 -1.359375 7.160156 -1.21875 7.921875 -1.21875 Z M 7.921875 -1.21875 "/></g></g></g><g fill="#e8e4dc" fill-opacity="1"><g transform="translate(891.066744, 507.967338)"><g><path d="M 2.703125 0 L 2.703125 -1.296875 L 7.0625 -1.296875 C 7.96875 -1.296875 8.679688 -1.546875 9.203125 -2.046875 C 9.722656 -2.554688 9.984375 -3.191406 9.984375 -3.953125 C 9.984375 -4.453125 9.867188 -4.898438 9.640625 -5.296875 C 9.410156 -5.703125 9.085938 -6.019531 8.671875 -6.25 C 8.253906 -6.476562 7.757812 -6.59375 7.1875 -6.59375 L 2.703125 -6.59375 L 2.703125 -7.875 L 6.953125 -7.875 C 7.703125 -7.875 8.289062 -8.070312 8.71875 -8.46875 C 9.15625 -8.875 9.375 -9.445312 9.375 -10.1875 C 9.375 -10.914062 9.140625 -11.476562 8.671875 -11.875 C 8.210938 -12.28125 7.585938 -12.484375 6.796875 -12.484375 L 2.703125 -12.484375 L 2.703125 -13.765625 L 6.84375 -13.765625 C 7.695312 -13.765625 8.421875 -13.609375 9.015625 -13.296875 C 9.617188 -12.992188 10.070312 -12.582031 10.375 -12.0625 C 10.6875 -11.539062 10.84375 -10.953125 10.84375 -10.296875 C 10.84375 -9.523438 10.640625 -8.863281 10.234375 -8.3125 C 9.835938 -7.757812 9.253906 -7.335938 8.484375 -7.046875 L 8.625 -7.515625 C 9.507812 -7.234375 10.203125 -6.773438 10.703125 -6.140625 C 11.203125 -5.503906 11.453125 -4.742188 11.453125 -3.859375 C 11.453125 -3.128906 11.273438 -2.472656 10.921875 -1.890625 C 10.578125 -1.304688 10.066406 -0.84375 9.390625 -0.5 C 8.710938 -0.164062 7.898438 0 6.953125 0 Z M 1.765625 0 L 1.765625 -13.765625 L 3.21875 -13.765625 L 3.21875 0 Z M 1.765625 0 "/></g></g></g><g fill="#e8e4dc" fill-opacity="1"><g transform="translate(907.061807, 507.967338)"><g><path d="M 5.5625 0.203125 C 4.488281 0.203125 3.566406 0 2.796875 -0.40625 C 2.023438 -0.8125 1.347656 -1.382812 0.765625 -2.125 L 1.78125 -3.125 C 2.25 -2.46875 2.789062 -1.976562 3.40625 -1.65625 C 4.03125 -1.34375 4.769531 -1.1875 5.625 -1.1875 C 6.5 -1.1875 7.207031 -1.382812 7.75 -1.78125 C 8.300781 -2.175781 8.578125 -2.726562 8.578125 -3.4375 C 8.578125 -3.988281 8.445312 -4.4375 8.1875 -4.78125 C 7.9375 -5.132812 7.609375 -5.421875 7.203125 -5.640625 C 6.796875 -5.867188 6.347656 -6.066406 5.859375 -6.234375 C 5.367188 -6.410156 4.878906 -6.59375 4.390625 -6.78125 C 3.898438 -6.976562 3.445312 -7.222656 3.03125 -7.515625 C 2.625 -7.804688 2.296875 -8.175781 2.046875 -8.625 C 1.804688 -9.082031 1.6875 -9.664062 1.6875 -10.375 C 1.6875 -11.125 1.863281 -11.765625 2.21875 -12.296875 C 2.582031 -12.828125 3.078125 -13.234375 3.703125 -13.515625 C 4.328125 -13.804688 5.039062 -13.953125 5.84375 -13.953125 C 6.738281 -13.953125 7.535156 -13.78125 8.234375 -13.4375 C 8.929688 -13.09375 9.515625 -12.628906 9.984375 -12.046875 L 8.984375 -11.046875 C 8.554688 -11.546875 8.085938 -11.925781 7.578125 -12.1875 C 7.066406 -12.457031 6.472656 -12.59375 5.796875 -12.59375 C 4.992188 -12.59375 4.351562 -12.40625 3.875 -12.03125 C 3.394531 -11.664062 3.15625 -11.148438 3.15625 -10.484375 C 3.15625 -9.960938 3.28125 -9.539062 3.53125 -9.21875 C 3.78125 -8.894531 4.109375 -8.625 4.515625 -8.40625 C 4.929688 -8.195312 5.378906 -8.007812 5.859375 -7.84375 C 6.347656 -7.675781 6.835938 -7.492188 7.328125 -7.296875 C 7.828125 -7.097656 8.28125 -6.84375 8.6875 -6.53125 C 9.09375 -6.226562 9.421875 -5.835938 9.671875 -5.359375 C 9.929688 -4.890625 10.0625 -4.289062 10.0625 -3.5625 C 10.0625 -2.375 9.65625 -1.445312 8.84375 -0.78125 C 8.039062 -0.125 6.945312 0.203125 5.5625 0.203125 Z M 5.5625 0.203125 "/></g></g></g><g fill="#e8e4dc" fill-opacity="1"><g transform="translate(921.637425, 507.967338)"><g><path d="M 1.765625 0 L 1.765625 -13.765625 L 3.21875 -13.765625 L 3.21875 0 Z M 2.71875 0 L 2.71875 -1.34375 L 10.8125 -1.34375 L 10.8125 0 Z M 2.71875 -6.40625 L 2.71875 -7.703125 L 10.1875 -7.703125 L 10.1875 -6.40625 Z M 2.71875 -12.421875 L 2.71875 -13.765625 L 10.703125 -13.765625 L 10.703125 -12.421875 Z M 2.71875 -12.421875 "/></g></g></g><g fill="#e8e4dc" fill-opacity="1"><g transform="translate(936.912768, 507.967338)"><g><path d="M 2.703125 -6.15625 L 2.703125 -7.40625 L 6.703125 -7.40625 C 7.609375 -7.40625 8.300781 -7.632812 8.78125 -8.09375 C 9.257812 -8.550781 9.5 -9.164062 9.5 -9.9375 C 9.5 -10.6875 9.257812 -11.296875 8.78125 -11.765625 C 8.300781 -12.242188 7.609375 -12.484375 6.703125 -12.484375 L 2.703125 -12.484375 L 2.703125 -13.765625 L 6.703125 -13.765625 C 7.597656 -13.765625 8.363281 -13.597656 9 -13.265625 C 9.632812 -12.941406 10.125 -12.492188 10.46875 -11.921875 C 10.8125 -11.347656 10.984375 -10.691406 10.984375 -9.953125 C 10.984375 -9.191406 10.8125 -8.523438 10.46875 -7.953125 C 10.125 -7.378906 9.632812 -6.9375 9 -6.625 C 8.363281 -6.3125 7.597656 -6.15625 6.703125 -6.15625 Z M 1.765625 0 L 1.765625 -13.765625 L 3.21875 -13.765625 L 3.21875 0 Z M 10.078125 0 L 4.921875 -6.359375 L 6.34375 -6.8125 L 11.953125 0 Z M 10.078125 0 "/></g></g></g><g fill="#e8e4dc" fill-opacity="1"><g transform="translate(953.067762, 507.967338)"><g><path d="M 6.21875 0 L 0.734375 -13.765625 L 2.34375 -13.765625 L 7.078125 -1.625 L 6.5 -1.625 L 11.28125 -13.765625 L 12.84375 -13.765625 L 7.3125 0 Z M 6.21875 0 "/></g></g></g><g fill="#e8e4dc" fill-opacity="1"><g transform="translate(970.142404, 507.967338)"><g><path d="M 1.765625 0 L 1.765625 -13.765625 L 3.21875 -13.765625 L 3.21875 0 Z M 2.71875 0 L 2.71875 -1.34375 L 10.8125 -1.34375 L 10.8125 0 Z M 2.71875 -6.40625 L 2.71875 -7.703125 L 10.1875 -7.703125 L 10.1875 -6.40625 Z M 2.71875 -12.421875 L 2.71875 -13.765625 L 10.703125 -13.765625 L 10.703125 -12.421875 Z M 2.71875 -12.421875 "/></g></g></g><g fill="#e8e4dc" fill-opacity="1"><g transform="translate(985.417748, 507.967338)"><g/></g></g><g fill="#e8e4dc" fill-opacity="1"><g transform="translate(993.216049, 507.967338)"><g><path d="M 1.140625 -6.078125 C 0.804688 -6.078125 0.53125 -6.191406 0.3125 -6.421875 C 0.101562 -6.648438 0 -6.921875 0 -7.234375 C 0 -7.554688 0.101562 -7.828125 0.3125 -8.046875 C 0.53125 -8.265625 0.804688 -8.375 1.140625 -8.375 C 1.453125 -8.375 1.710938 -8.265625 1.921875 -8.046875 C 2.140625 -7.828125 2.25 -7.554688 2.25 -7.234375 C 2.25 -6.921875 2.140625 -6.648438 1.921875 -6.421875 C 1.710938 -6.191406 1.453125 -6.078125 1.140625 -6.078125 Z M 1.140625 -6.078125 "/></g></g></g><g fill="#e8e4dc" fill-opacity="1"><g transform="translate(998.982074, 507.967338)"><g/></g></g><g fill="#e8e4dc" fill-opacity="1"><g transform="translate(1006.780376, 507.967338)"><g><path d="M 2.65625 0 L 2.65625 -1.359375 L 6.703125 -1.359375 C 7.773438 -1.359375 8.722656 -1.59375 9.546875 -2.0625 C 10.378906 -2.539062 11.03125 -3.195312 11.5 -4.03125 C 11.96875 -4.863281 12.203125 -5.820312 12.203125 -6.90625 C 12.203125 -7.976562 11.96875 -8.925781 11.5 -9.75 C 11.03125 -10.582031 10.378906 -11.234375 9.546875 -11.703125 C 8.722656 -12.179688 7.773438 -12.421875 6.703125 -12.421875 L 2.703125 -12.421875 L 2.703125 -13.765625 L 6.734375 -13.765625 C 7.734375 -13.765625 8.65625 -13.59375 9.5 -13.25 C 10.351562 -12.90625 11.097656 -12.421875 11.734375 -11.796875 C 12.367188 -11.179688 12.859375 -10.457031 13.203125 -9.625 C 13.546875 -8.789062 13.71875 -7.875 13.71875 -6.875 C 13.71875 -5.90625 13.546875 -5 13.203125 -4.15625 C 12.859375 -3.320312 12.367188 -2.59375 11.734375 -1.96875 C 11.109375 -1.351562 10.375 -0.867188 9.53125 -0.515625 C 8.6875 -0.171875 7.769531 0 6.78125 0 Z M 1.765625 0 L 1.765625 -13.765625 L 3.21875 -13.765625 L 3.21875 0 Z M 1.765625 0 "/></g></g></g><g fill="#e8e4dc" fill-opacity="1"><g transform="translate(1025.054541, 507.967338)"><g><path d="M 1.765625 0 L 1.765625 -13.765625 L 3.21875 -13.765625 L 3.21875 0 Z M 2.71875 0 L 2.71875 -1.34375 L 10.8125 -1.34375 L 10.8125 0 Z M 2.71875 -6.40625 L 2.71875 -7.703125 L 10.1875 -7.703125 L 10.1875 -6.40625 Z M 2.71875 -12.421875 L 2.71875 -13.765625 L 10.703125 -13.765625 L 10.703125 -12.421875 Z M 2.71875 -12.421875 "/></g></g></g><g fill="#e8e4dc" fill-opacity="1"><g transform="translate(1040.329885, 507.967338)"><g><path d="M 5.578125 0 L 5.578125 -13.375 L 7.0625 -13.375 L 7.0625 0 Z M 0.734375 -12.421875 L 0.734375 -13.765625 L 11.90625 -13.765625 L 11.90625 -12.421875 Z M 0.734375 -12.421875 "/></g></g></g><g fill="#e8e4dc" fill-opacity="1"><g transform="translate(1056.464897, 507.967338)"><g><path d="M 1.765625 0 L 1.765625 -13.765625 L 3.21875 -13.765625 L 3.21875 0 Z M 2.71875 0 L 2.71875 -1.34375 L 10.8125 -1.34375 L 10.8125 0 Z M 2.71875 -6.40625 L 2.71875 -7.703125 L 10.1875 -7.703125 L 10.1875 -6.40625 Z M 2.71875 -12.421875 L 2.71875 -13.765625 L 10.703125 -13.765625 L 10.703125 -12.421875 Z M 2.71875 -12.421875 "/></g></g></g><g fill="#e8e4dc" fill-opacity="1"><g transform="translate(1071.740241, 507.967338)"><g><path d="M 8 0.203125 C 7.007812 0.203125 6.09375 0.0234375 5.25 -0.328125 C 4.40625 -0.691406 3.664062 -1.203125 3.03125 -1.859375 C 2.40625 -2.515625 1.921875 -3.269531 1.578125 -4.125 C 1.242188 -4.988281 1.078125 -5.914062 1.078125 -6.90625 C 1.078125 -7.882812 1.242188 -8.800781 1.578125 -9.65625 C 1.921875 -10.519531 2.398438 -11.269531 3.015625 -11.90625 C 3.640625 -12.550781 4.375 -13.050781 5.21875 -13.40625 C 6.0625 -13.769531 6.96875 -13.953125 7.9375 -13.953125 C 8.988281 -13.953125 9.929688 -13.765625 10.765625 -13.390625 C 11.597656 -13.023438 12.328125 -12.515625 12.953125 -11.859375 L 11.953125 -10.859375 C 11.472656 -11.390625 10.894531 -11.804688 10.21875 -12.109375 C 9.539062 -12.410156 8.78125 -12.5625 7.9375 -12.5625 C 7.164062 -12.5625 6.457031 -12.421875 5.8125 -12.140625 C 5.164062 -11.859375 4.597656 -11.460938 4.109375 -10.953125 C 3.617188 -10.441406 3.242188 -9.84375 2.984375 -9.15625 C 2.722656 -8.46875 2.59375 -7.71875 2.59375 -6.90625 C 2.59375 -6.09375 2.726562 -5.335938 3 -4.640625 C 3.269531 -3.941406 3.644531 -3.335938 4.125 -2.828125 C 4.601562 -2.316406 5.164062 -1.921875 5.8125 -1.640625 C 6.46875 -1.359375 7.179688 -1.21875 7.953125 -1.21875 C 8.835938 -1.21875 9.625 -1.367188 10.3125 -1.671875 C 11 -1.984375 11.582031 -2.40625 12.0625 -2.9375 L 13.0625 -1.921875 C 12.445312 -1.265625 11.710938 -0.742188 10.859375 -0.359375 C 10.003906 0.015625 9.050781 0.203125 8 0.203125 Z M 8 0.203125 "/></g></g></g><g fill="#e8e4dc" fill-opacity="1"><g transform="translate(1089.094771, 507.967338)"><g><path d="M 5.578125 0 L 5.578125 -13.375 L 7.0625 -13.375 L 7.0625 0 Z M 0.734375 -12.421875 L 0.734375 -13.765625 L 11.90625 -13.765625 L 11.90625 -12.421875 Z M 0.734375 -12.421875 "/></g></g></g><g fill="#e8e4dc" fill-opacity="1"><g transform="translate(1105.229783, 507.967338)"><g><path d="M 1.140625 -6.078125 C 0.804688 -6.078125 0.53125 -6.191406 0.3125 -6.421875 C 0.101562 -6.648438 0 -6.921875 0 -7.234375 C 0 -7.554688 0.101562 -7.828125 0.3125 -8.046875 C 0.53125 -8.265625 0.804688 -8.375 1.140625 -8.375 C 1.453125 -8.375 1.710938 -8.265625 1.921875 -8.046875 C 2.140625 -7.828125 2.25 -7.554688 2.25 -7.234375 C 2.25 -6.921875 2.140625 -6.648438 1.921875 -6.421875 C 1.710938 -6.191406 1.453125 -6.078125 1.140625 -6.078125 Z M 1.140625 -6.078125 "/></g></g></g><g fill="#e8e4dc" fill-opacity="1"><g transform="translate(1110.988885, 507.967338)"><g/></g></g><g fill="#e8e4dc" fill-opacity="1"><g transform="translate(1118.787186, 507.967338)"><g><path d="M 2.703125 -5.515625 L 2.703125 -6.8125 L 6.765625 -6.8125 C 7.316406 -6.8125 7.816406 -6.925781 8.265625 -7.15625 C 8.710938 -7.382812 9.066406 -7.707031 9.328125 -8.125 C 9.585938 -8.550781 9.71875 -9.054688 9.71875 -9.640625 C 9.71875 -10.222656 9.585938 -10.722656 9.328125 -11.140625 C 9.066406 -11.566406 8.710938 -11.894531 8.265625 -12.125 C 7.816406 -12.363281 7.316406 -12.484375 6.765625 -12.484375 L 2.703125 -12.484375 L 2.703125 -13.765625 L 6.859375 -13.765625 C 7.679688 -13.765625 8.421875 -13.59375 9.078125 -13.25 C 9.734375 -12.90625 10.25 -12.425781 10.625 -11.8125 C 11.007812 -11.207031 11.203125 -10.484375 11.203125 -9.640625 C 11.203125 -8.816406 11.007812 -8.09375 10.625 -7.46875 C 10.25 -6.851562 9.734375 -6.375 9.078125 -6.03125 C 8.421875 -5.6875 7.679688 -5.515625 6.859375 -5.515625 Z M 1.765625 0 L 1.765625 -13.765625 L 3.21875 -13.765625 L 3.21875 0 Z M 1.765625 0 "/></g></g></g><g fill="#e8e4dc" fill-opacity="1"><g transform="translate(1134.442382, 507.967338)"><g><path d="M 2.703125 -6.15625 L 2.703125 -7.40625 L 6.703125 -7.40625 C 7.609375 -7.40625 8.300781 -7.632812 8.78125 -8.09375 C 9.257812 -8.550781 9.5 -9.164062 9.5 -9.9375 C 9.5 -10.6875 9.257812 -11.296875 8.78125 -11.765625 C 8.300781 -12.242188 7.609375 -12.484375 6.703125 -12.484375 L 2.703125 -12.484375 L 2.703125 -13.765625 L 6.703125 -13.765625 C 7.597656 -13.765625 8.363281 -13.597656 9 -13.265625 C 9.632812 -12.941406 10.125 -12.492188 10.46875 -11.921875 C 10.8125 -11.347656 10.984375 -10.691406 10.984375 -9.953125 C 10.984375 -9.191406 10.8125 -8.523438 10.46875 -7.953125 C 10.125 -7.378906 9.632812 -6.9375 9 -6.625 C 8.363281 -6.3125 7.597656 -6.15625 6.703125 -6.15625 Z M 1.765625 0 L 1.765625 -13.765625 L 3.21875 -13.765625 L 3.21875 0 Z M 10.078125 0 L 4.921875 -6.359375 L 6.34375 -6.8125 L 11.953125 0 Z M 10.078125 0 "/></g></g></g><g fill="#e8e4dc" fill-opacity="1"><g transform="translate(1150.597376, 507.967338)"><g><path d="M 7.953125 0.203125 C 6.984375 0.203125 6.082031 0.0195312 5.25 -0.34375 C 4.414062 -0.71875 3.6875 -1.226562 3.0625 -1.875 C 2.4375 -2.519531 1.945312 -3.269531 1.59375 -4.125 C 1.238281 -4.988281 1.0625 -5.914062 1.0625 -6.90625 C 1.0625 -7.90625 1.234375 -8.828125 1.578125 -9.671875 C 1.921875 -10.523438 2.40625 -11.269531 3.03125 -11.90625 C 3.664062 -12.550781 4.394531 -13.050781 5.21875 -13.40625 C 6.039062 -13.769531 6.941406 -13.953125 7.921875 -13.953125 C 8.890625 -13.953125 9.789062 -13.769531 10.625 -13.40625 C 11.457031 -13.050781 12.1875 -12.550781 12.8125 -11.90625 C 13.445312 -11.269531 13.9375 -10.519531 14.28125 -9.65625 C 14.625 -8.800781 14.796875 -7.875 14.796875 -6.875 C 14.796875 -5.894531 14.625 -4.972656 14.28125 -4.109375 C 13.9375 -3.242188 13.453125 -2.492188 12.828125 -1.859375 C 12.210938 -1.222656 11.488281 -0.71875 10.65625 -0.34375 C 9.832031 0.0195312 8.929688 0.203125 7.953125 0.203125 Z M 7.921875 -1.21875 C 8.960938 -1.21875 9.882812 -1.460938 10.6875 -1.953125 C 11.5 -2.453125 12.132812 -3.128906 12.59375 -3.984375 C 13.050781 -4.835938 13.28125 -5.8125 13.28125 -6.90625 C 13.28125 -7.71875 13.144531 -8.46875 12.875 -9.15625 C 12.613281 -9.84375 12.242188 -10.441406 11.765625 -10.953125 C 11.285156 -11.460938 10.71875 -11.859375 10.0625 -12.140625 C 9.414062 -12.421875 8.703125 -12.5625 7.921875 -12.5625 C 6.890625 -12.5625 5.96875 -12.316406 5.15625 -11.828125 C 4.351562 -11.335938 3.722656 -10.664062 3.265625 -9.8125 C 2.804688 -8.96875 2.578125 -8 2.578125 -6.90625 C 2.578125 -6.09375 2.707031 -5.335938 2.96875 -4.640625 C 3.238281 -3.941406 3.613281 -3.335938 4.09375 -2.828125 C 4.570312 -2.316406 5.140625 -1.921875 5.796875 -1.640625 C 6.453125 -1.359375 7.160156 -1.21875 7.921875 -1.21875 Z M 7.921875 -1.21875 "/></g></g></g><g fill="#e8e4dc" fill-opacity="1"><g transform="translate(1169.971101, 507.967338)"><g><path d="M 5.578125 0 L 5.578125 -13.375 L 7.0625 -13.375 L 7.0625 0 Z M 0.734375 -12.421875 L 0.734375 -13.765625 L 11.90625 -13.765625 L 11.90625 -12.421875 Z M 0.734375 -12.421875 "/></g></g></g><g fill="#e8e4dc" fill-opacity="1"><g transform="translate(1186.106114, 507.967338)"><g><path d="M 1.765625 0 L 1.765625 -13.765625 L 3.21875 -13.765625 L 3.21875 0 Z M 2.71875 0 L 2.71875 -1.34375 L 10.8125 -1.34375 L 10.8125 0 Z M 2.71875 -6.40625 L 2.71875 -7.703125 L 10.1875 -7.703125 L 10.1875 -6.40625 Z M 2.71875 -12.421875 L 2.71875 -13.765625 L 10.703125 -13.765625 L 10.703125 -12.421875 Z M 2.71875 -12.421875 "/></g></g></g><g fill="#e8e4dc" fill-opacity="1"><g transform="translate(1201.381446, 507.967338)"><g><path d="M 8 0.203125 C 7.007812 0.203125 6.09375 0.0234375 5.25 -0.328125 C 4.40625 -0.691406 3.664062 -1.203125 3.03125 -1.859375 C 2.40625 -2.515625 1.921875 -3.269531 1.578125 -4.125 C 1.242188 -4.988281 1.078125 -5.914062 1.078125 -6.90625 C 1.078125 -7.882812 1.242188 -8.800781 1.578125 -9.65625 C 1.921875 -10.519531 2.398438 -11.269531 3.015625 -11.90625 C 3.640625 -12.550781 4.375 -13.050781 5.21875 -13.40625 C 6.0625 -13.769531 6.96875 -13.953125 7.9375 -13.953125 C 8.988281 -13.953125 9.929688 -13.765625 10.765625 -13.390625 C 11.597656 -13.023438 12.328125 -12.515625 12.953125 -11.859375 L 11.953125 -10.859375 C 11.472656 -11.390625 10.894531 -11.804688 10.21875 -12.109375 C 9.539062 -12.410156 8.78125 -12.5625 7.9375 -12.5625 C 7.164062 -12.5625 6.457031 -12.421875 5.8125 -12.140625 C 5.164062 -11.859375 4.597656 -11.460938 4.109375 -10.953125 C 3.617188 -10.441406 3.242188 -9.84375 2.984375 -9.15625 C 2.722656 -8.46875 2.59375 -7.71875 2.59375 -6.90625 C 2.59375 -6.09375 2.726562 -5.335938 3 -4.640625 C 3.269531 -3.941406 3.644531 -3.335938 4.125 -2.828125 C 4.601562 -2.316406 5.164062 -1.921875 5.8125 -1.640625 C 6.46875 -1.359375 7.179688 -1.21875 7.953125 -1.21875 C 8.835938 -1.21875 9.625 -1.367188 10.3125 -1.671875 C 11 -1.984375 11.582031 -2.40625 12.0625 -2.9375 L 13.0625 -1.921875 C 12.445312 -1.265625 11.710938 -0.742188 10.859375 -0.359375 C 10.003906 0.015625 9.050781 0.203125 8 0.203125 Z M 8 0.203125 "/></g></g></g><g fill="#e8e4dc" fill-opacity="1"><g transform="translate(1218.735998, 507.967338)"><g><path d="M 5.578125 0 L 5.578125 -13.375 L 7.0625 -13.375 L 7.0625 0 Z M 0.734375 -12.421875 L 0.734375 -13.765625 L 11.90625 -13.765625 L 11.90625 -12.421875 Z M 0.734375 -12.421875 "/></g></g></g><path stroke-linecap="butt" transform="matrix(-0.749998, 0.00156521, -0.00156521, -0.749998, 1231.578232, 477.095852)" fill="none" stroke-linejoin="miter" d="M 0.00118247 1.997601 L 477.856423 2.000068 " stroke="#c9a96e" stroke-width="4" stroke-opacity="1" stroke-miterlimit="4"/></svg>